<svg width="119" height="16" viewBox="0 0 119 16" xmlns="http://www.w3.org/2000/svg"><title>logo</title><path d="M20.596 9.143V0H0v2.286h18.308v4.571H0V16h2.288V9.143h18.308zM25.173 0h2.289v16h-2.289V0zm9.154 2.286V16h-2.289V0h20.597v16h-2.289V2.286h-16.02zM77.807 16H57.213V0h20.596v2.286H59.5v11.428h16.02V9.143h-9.155V6.857h11.443V16zm4.578-9.143v2.286h6.865V16h2.288V9.143h6.866V6.857h-6.866V0H89.25v6.857h-6.865zM112.135 0h-2.289v6.857h-6.865v2.286h6.865V16h2.289V9.143H119V6.857h-6.865V0z" fill="#111" fill-rule="evenodd"/></svg>